<?xml version="1.0" encoding="UTF-8"?>
<svg width="20px" height="20px" viewBox="0 0 20 20" version="1.1" xmlns="http://www.w3.org/2000/svg" xmlns:xlink="http://www.w3.org/1999/xlink">
    <title>Icon - Utility / Close</title>
    <g id="Page-1" stroke="none" stroke-width="1" fill="none" fill-rule="evenodd">
        <g id="Group" transform="translate(-2.000000, -2.000000)" fill="#363636" fill-rule="nonzero">
            <g id="↳🌈-Color">
                <path d="M2.29289322,2.29289322 C2.68341751,1.90236893 3.31658249,1.90236893 3.70710678,2.29289322 L3.70710678,2.29289322 L12,10.585 L20.2928932,2.29289322 C20.6533772,1.93240926 21.2206082,1.90467972 21.6128994,2.20970461 L21.7071068,2.29289322 C22.0976311,2.68341751 22.0976311,3.31658249 21.7071068,3.70710678 L21.7071068,3.70710678 L13.415,12 L21.7071068,20.2928932 C22.0675907,20.6533772 22.0953203,21.2206082 21.7902954,21.6128994 L21.7071068,21.7071068 C21.3165825,22.0976311 20.6834175,22.0976311 20.2928932,21.7071068 L20.2928932,21.7071068 L12,13.415 L3.70710678,21.7071068 C3.34662282,22.0675907 2.77939176,22.0953203 2.38710056,21.7902954 L2.29289322,21.7071068 C1.90236893,21.3165825 1.90236893,20.6834175 2.29289322,20.2928932 L2.29289322,20.2928932 L10.585,12 L2.29289322,3.70710678 C1.93240926,3.34662282 1.90467972,2.77939176 2.20970461,2.38710056 Z"></path>
            </g>
        </g>
    </g>
</svg>