<?xml version="1.0" encoding="UTF-8"?>
<svg width="22px" height="25px" viewBox="0 0 22 25" version="1.1" xmlns="http://www.w3.org/2000/svg" xmlns:xlink="http://www.w3.org/1999/xlink">
    <title>salary</title>
    <g id="salary" stroke="none" stroke-width="1" fill="none" fill-rule="evenodd">
        <rect id="Rectangle" fill-rule="nonzero" x="0" y="0" width="22" height="25"></rect>
        <g transform="translate(1.000000, 1.000000)" fill-rule="nonzero">
            <path d="M9.36004443,12.569 L9.59464158,12.573827 C10.458957,12.6097064 11.1191853,12.8462525 11.5687072,13.2885821 C12.0179504,13.7306374 12.2589104,14.3682755 12.2959507,15.1948817 L12.301,15.425 L12.3000171,16.9161436 L12.2887372,17.0037888 C12.2715958,17.073673 12.2366735,17.1354585 12.185566,17.186566 C12.1281992,17.2439329 12.0582487,17.2801811 11.9795174,17.2947197 L11.898,17.302 L11.4188564,17.3010171 L11.3312112,17.2897372 C11.261327,17.2725958 11.1995415,17.2376735 11.148434,17.186566 C11.0910671,17.1291992 11.0548189,17.0592487 11.0402803,16.9805174 L11.033,16.899 L11.0330441,15.4616362 L11.0289197,15.289547 C10.9790199,14.2857158 10.4781083,13.7744451 9.48278619,13.7207355 L9.302,13.716 L7.823,13.716 L7.82301711,18.7641436 L7.81173718,18.8517888 C7.79459578,18.921673 7.75967349,18.9834585 7.70856602,19.034566 C7.65119916,19.0919329 7.58124871,19.1281811 7.50251741,19.1427197 L7.421,19.15 L6.94185644,19.1490171 L6.85421122,19.1377372 C6.78432705,19.1205958 6.72254146,19.0856735 6.67143398,19.034566 C6.61406712,18.9771992 6.57781894,18.9072487 6.56328027,18.8285174 L6.556,18.747 L6.55698289,12.9548564 L6.56826282,12.8672112 C6.58540422,12.797327 6.62032651,12.7355415 6.67143398,12.684434 C6.72880084,12.6270671 6.79875129,12.5908189 6.87748259,12.5762803 L6.959,12.569 L9.36004443,12.569 Z M14.0381436,12.5699829 L14.1257888,12.5812628 C14.195673,12.5984042 14.2574585,12.6333265 14.308566,12.684434 C14.3659329,12.7418008 14.4021811,12.8117513 14.4167197,12.8904826 L14.424,12.972 L14.424,16.2975724 L14.4180946,16.5417175 C14.3781897,17.3597677 14.13532,17.992 13.6857805,18.4308361 C13.2334507,18.8723961 12.5728209,19.1087269 11.7094787,19.145049 L11.469,19.15 L9.06485644,19.1490171 L8.97721122,19.1377372 C8.90732705,19.1205958 8.84554146,19.0856735 8.79443398,19.034566 C8.73706712,18.9771992 8.70081894,18.9072487 8.68628027,18.8285174 L8.679,18.747 L8.67998289,14.7918564 L8.69126282,14.7042112 C8.70840422,14.634327 8.74332651,14.5725415 8.79443398,14.521434 C8.85180084,14.4640671 8.92175129,14.4278189 9.00048259,14.4132803 L9.082,14.406 L9.56114356,14.4069829 L9.64878878,14.4182628 C9.71867295,14.4354042 9.78045854,14.4703265 9.83156602,14.521434 C9.88893288,14.5788008 9.92518106,14.6487513 9.93971973,14.7274826 L9.947,14.809 L9.946,17.992 L11.4103638,17.9920441 L11.582453,17.9879197 C12.5862842,17.9380199 13.0975549,17.4371083 13.1512645,16.4417862 L13.156,16.261 L13.1568444,12.9561064 L13.1678299,12.863525 C13.185087,12.7891866 13.2213816,12.7249731 13.275758,12.6747795 C13.3330369,12.6219067 13.401934,12.5888421 13.479143,12.5756144 L13.559,12.569 L14.0381436,12.5699829 Z" id="Shape" fill="#4A90E2"></path>
            <path d="M13.3360908,-0.8 C12.6954971,-0.8 12.2026621,-0.668559806 11.4230547,-0.350092154 L10.898152,-0.134268439 L10.6851978,-0.0528056238 L10.5284873,-8.29340899e-05 L10.4152359,0.0283136971 C10.3992719,0.0312645234 10.3845861,0.0333856834 10.370912,0.0347691368 L10.333,0.036 L9.78545957,-0.158478599 C8.70986712,-0.527645024 7.97473806,-0.685239085 7.21992432,-0.685239085 C5.9281458,-0.685239085 4.81811353,-0.161292082 3.78424165,0.906799159 L3.68804586,1.01736138 C3.33034598,1.47610242 3.29850517,2.12330639 3.6234642,2.61903818 L5.833,5.979 L5.78829712,6.01512504 C4.92514345,6.72609613 4.02470453,7.60325619 3.16806729,8.63692828 C2.08094565,9.95055409 1.20863458,11.3586863 0.578404876,12.8182006 C-0.215186799,14.6628527 -0.618181818,16.5921248 -0.618181818,18.5482328 C-0.618181818,21.441973 1.7253279,23.8 4.60617795,23.8 L15.3938221,23.8 C18.2746721,23.8 20.6181818,21.441973 20.6181818,18.5482328 C20.6181818,16.5921249 20.2151868,14.6628527 19.4220214,12.8191895 C18.7872138,11.3490719 17.9165401,9.9415576 16.8311402,8.63597344 L16.5027649,8.24858136 C15.7322351,7.36255557 14.934387,6.6022532 14.1707161,5.97817439 L14.075,5.902 L16.1797715,1.97490965 C16.4672635,1.43110291 16.3679103,0.764645278 15.9224563,0.339417159 C15.1600109,-0.41043884 14.2976247,-0.8 13.3360908,-0.8 Z M13.5074926,0.807911554 C13.9034448,0.8450038 14.2730145,1.01372133 14.6480123,1.33929808 L14.686,1.374 L12.0187503,6.35315382 L12.5759644,6.76430878 C13.5328376,7.47036265 14.5994324,8.44673443 15.5992085,9.65692307 C16.5896646,10.8483092 17.3796073,12.1253153 17.9526899,13.4524854 C18.6600938,15.0968034 19.0181818,16.8110905 19.0181818,18.5482328 C19.0181818,20.5605218 17.3887971,22.2 15.3938221,22.2 L4.60617795,22.2 C2.61120293,22.2 0.981818182,20.5605218 0.981818182,18.5482328 C0.981818182,16.8110905 1.33990617,15.0968033 2.0477364,13.4514965 C2.6163186,12.1347502 3.40851509,10.8559432 4.40035533,9.65745063 C5.38358082,8.47102954 6.43119926,7.50773339 7.3851451,6.79489973 L7.98870156,6.34389367 L5.061,1.893 C5.94483335,1.24084061 6.66447479,0.914760915 7.21992432,0.914760915 C7.67959958,0.914760915 8.16954259,1.00485258 8.85632916,1.21976785 L9.29335493,1.3639737 L9.78561879,1.53980435 C9.9511055,1.60474005 10.1349185,1.63679834 10.3326586,1.63679834 C10.5801097,1.63679834 10.7716244,1.60732604 11.04335,1.51861146 L11.2990767,1.42736773 L11.7980076,1.2269827 C12.5392391,0.912983322 12.9128118,0.8 13.3360908,0.8 L13.5074926,0.807911554 Z" id="Path" fill="#363636"></path>
        </g>
    </g>
</svg>