<svg width="74px" height="96px" viewBox="0 0 74 96" version="1.1" xmlns="http://www.w3.org/2000/svg" xmlns:xlink="http://www.w3.org/1999/xlink">
    <title>icon/timer</title>
    <defs>
        <linearGradient x1="-56.0024895%" y1="95.4253216%" x2="165.93839%" y2="13.6835549%" id="linearGradient-1">
            <stop stop-color="#FF7100" offset="0%"></stop>
            <stop stop-color="#F6DA35" offset="100%"></stop>
        </linearGradient>
        <linearGradient x1="-56.0024895%" y1="95.4713865%" x2="165.93839%" y2="13.6467271%" id="linearGradient-2">
            <stop stop-color="#FF7100" offset="0%"></stop>
            <stop stop-color="#F6DA35" offset="100%"></stop>
        </linearGradient>
        <linearGradient x1="-56.0024895%" y1="58.0650316%" x2="165.93839%" y2="43.5522025%" id="linearGradient-3">
            <stop stop-color="#FF7100" offset="0%"></stop>
            <stop stop-color="#F6DA35" offset="100%"></stop>
        </linearGradient>
    </defs>
    <g id="Page-1" stroke="none" stroke-width="1" fill="none" fill-rule="evenodd">
        <g id="1.3-mobile" transform="translate(-149.000000, -121.000000)">
            <g id="Group" transform="translate(126.000000, 107.000000)">
                <g id="Group-3" transform="translate(23.000000, 11.033917)">
                    <ellipse id="Oval" fill-opacity="0.05" fill="#363636" cx="34.9094077" cy="88.8967454" rx="34.9094077" ry="9.89674538"></ellipse>
                    <g id="Group-5" transform="translate(15.618351, 21.453370)" fill-rule="nonzero">
                        <g id="noun_sand-clock_4079211-copy-2">
                            <path d="M16.2910569,47.9846291 C22.5997867,51.891369 30.4899126,50.7917642 35.0535787,52.0760868 C36.0426983,57.6968126 34.1551994,61.9313278 34.121091,62.010032 L33.8858063,62.5113615 L3.35064597,62.5113615 L3.11536133,62.010032 C3.06199489,61.8971398 -0.80121155,53.2373189 5.47450742,44.1988775 C9.6680662,44.8533596 13.2727209,46.1154964 16.2910569,47.9846291 Z" id="Combined-Shape" fill="#FFECC9"></path>
                            <path d="M33.8858063,62.5113615 L3.35064597,62.5113615 L3.11536133,62.010032 C3.0464874,61.864335 -3.36809292,47.4827908 13.8560385,36.4240838 C14.4355266,36.0626269 16.053607,34.8268191 16.053607,33.7658309 C16.053607,32.7806456 14.5847396,31.5564024 13.8675037,31.1192269 C-3.37382549,20.048871 3.0464874,5.6673267 3.10962876,5.52162969 L3.3449134,5.02030029 L33.8800737,5.02030029 L34.1153584,5.52162969 C34.1842323,5.6673267 40.5988126,20.048871 23.3746812,31.1075779 C22.7951931,31.4689504 21.1771958,32.7048426 21.1771958,33.7658309 C21.1771958,34.8268191 22.7951931,36.0627113 23.3632161,36.4124348 C40.5988126,47.4769663 34.1842323,61.864335 34.121091,62.010032 L33.8858063,62.5113615 Z" id="Path" stroke="#363636"></path>
                            <path d="M13.3449134,5.02030029 L13.1096288,5.52162969 C13.0464874,5.6673267 -0.373825493,20.048871 16.8675037,31.1192269 C17.5847396,31.5564024 19.053607,32.7806456 19.053607,33.7658309 C19.053607,34.8268191 17.4355266,36.0626269 16.8560385,36.4240838 C-0.368092923,47.4827908 13.0464874,61.864335 13.1153613,62.010032 L13.1153613,62.010032 L6.35064597,62.5113615 L3.35064597,62.5113615 L3.11536133,62.010032 C3.0464874,61.864335 -3.36809292,47.4827908 13.8560385,36.4240838 C14.4355266,36.0626269 16.053607,34.8268191 16.053607,33.7658309 C16.053607,32.7806456 14.5847396,31.5564024 13.8675037,31.1192269 C-3.37382549,20.048871 3.0464874,5.6673267 3.10962876,5.52162969 L3.3449134,5.02030029 L13.3449134,5.02030029 Z" id="Combined-Shape" fill-opacity="0.1" fill="#363636"></path>
                            <path d="M37.2367015,6.76815794 L8.30807329e-05,6.76815794 L8.30807329e-05,2.64662081 C8.30807329e-05,1.18922863 1.17052445,0 2.60491331,0 L34.6319544,0 C36.0663432,0 37.2367015,1.18922863 37.2367015,2.64662081 L37.2367015,6.76815794 Z" id="Path" stroke="#363636" fill="#EEEEEE"></path>
                            <path d="M34.6317882,67.5307332 L2.60483023,67.5307332 C1.17044137,67.5307332 0,66.3415214 0,64.8841293 L0,60.7625753 L37.2366184,60.7625753 L37.2366184,64.8841293 C37.2366184,66.347346 36.0661771,67.5307332 34.6317882,67.5307332 Z" id="Path" stroke="#363636" fill="#EEEEEE"></path>
                        </g>
                    </g>
                    <g id="Group" transform="translate(61.006579, 17.056631) rotate(-40.000000) translate(-61.006579, -17.056631) translate(53.286082, 1.269047)" fill-rule="nonzero">
                        <path d="M10.3410258,1.17579775 C10.7784097,0.959188502 11.1911311,0.932233055 11.544667,1.05085517 C11.9550453,1.1885496 12.2773015,1.50943858 12.4690535,1.89078126 C12.661323,2.27315319 12.7264208,2.72409973 12.5916091,3.13442646 C12.4758923,3.48663385 12.2084716,3.79788322 11.7754151,4.01320816 L11.7754151,4.01320816 L3.04930005,8.35145772 C2.61112032,8.56785073 2.19778344,8.59458621 1.84381827,8.47579832 C1.43327899,8.33802461 1.11094889,8.01730854 0.919268032,7.63610737 C0.727148567,7.25403394 0.662262248,6.80346195 0.797213113,6.39341477 C0.913145126,6.04115622 1.18090388,5.72984321 1.61432698,5.51433598 L1.61432698,5.51433598 L10.3410258,1.17579775 Z" id="Path" fill="url(#linearGradient-1)" transform="translate(6.694325, 4.763433) rotate(-10.000000) translate(-6.694325, -4.763433) "></path>
                        <path d="M1.84321202,22.7420219 C2.19725297,22.6233101 2.61067825,22.6502016 3.04772068,22.866195 L3.04772068,22.866195 L11.7754873,27.2053636 C12.2079539,27.4204127 12.4748397,27.7338837 12.5905687,28.0882823 C12.7256017,28.5017959 12.6611993,28.9567144 12.4677666,29.3414223 C12.277555,29.7197239 11.9585765,30.03761 11.5501646,30.1728027 C11.1962643,30.2899509 10.7821318,30.2605766 10.3420276,30.0432398 L10.3420276,30.0432398 L1.61421855,25.7039054 C1.18055773,25.4882994 0.912652105,25.1768796 0.796631206,24.8245134 C0.661587966,24.4143747 0.726438221,23.9637159 0.918574573,23.5816004 C1.11025575,23.2003902 1.43261617,22.8796969 1.84321202,22.7420219 Z" id="Path" fill="url(#linearGradient-2)" transform="translate(6.693632, 26.456371) rotate(14.000000) translate(-6.693632, -26.456371) "></path>
                        <path d="M13.8614618,13.8789303 C14.3478174,13.8789303 14.7282729,14.0386933 14.9909669,14.3027192 C15.2962525,14.6095526 15.4409951,15.0415982 15.4409951,15.4691127 C15.4409951,15.8951647 15.2972164,16.3253956 14.992486,16.6307484 C14.7298062,16.8939649 14.3489358,17.0527526 13.8614326,17.0527526 L13.8614326,17.0527526 L5.13451505,17.0527526 C4.64814709,17.0527526 4.26768332,16.8929453 4.00498361,16.6289072 C3.69969826,16.3220664 3.55495251,15.8900247 3.55495251,15.462516 C3.55495251,15.0364776 3.69872901,14.6062641 4.00345427,14.3009239 C4.2661355,14.0377127 4.64700864,13.8789303 5.13451505,13.8789303 L5.13451505,13.8789303 L13.8614618,13.8789303 Z" id="Path" fill="url(#linearGradient-3)"></path>
                    </g>
                </g>
            </g>
        </g>
    </g>
</svg>